<svg xmlns="http://www.w3.org/2000/svg" viewBox="0 0 32 32">
  <title>file_type_nlp</title>
  <!-- Speech bubble symbolizing language -->
  <path d="M16 2C8.268 2 2 8.268 2 16s6.268 14 14 14 14-6.268 14-14S23.732 2 16 2zm0 24c-6.627 0-12-5.373-12-12s5.373-12 12-12 12 5.373 12 12-5.373 12-12 12z" style="fill:#33a9dc"/>
  <!-- Book symbolizing text or knowledge -->
  <path d="M16 6c-4.418 0-8 3.582-8 8s3.582 8 8 8 8-3.582 8-8-3.582-8-8-8zm-1 12h2v2h-2zm0-4h2v4h-2zm4 4h2v2h-2zm0-4h2v4h-2z" style="fill:#1572b6"/>
</svg>
